<?xml version="1.0" encoding="utf-8"?>
<!-- Generator: Adobe Illustrator 18.0.0, SVG Export Plug-In . SVG Version: 6.00 Build 0)  -->
<!DOCTYPE svg PUBLIC "-//W3C//DTD SVG 1.1//EN" "http://www.w3.org/Graphics/SVG/1.1/DTD/svg11.dtd">
<svg version="1.1" id="Calque_1" xmlns="http://www.w3.org/2000/svg" xmlns:xlink="http://www.w3.org/1999/xlink" x="0px" y="0px"
	 viewBox="0 0 126.3 94" enable-background="new 0 0 126.3 94" xml:space="preserve">
<rect x="0" y="0" fill="none" width="126.3" height="94"/>
<path fill="#ec407a" d="M54.2,37.5H26V10.5h28.3V37.5z M30.2,33.2H50V14.8H30.2V33.2z"/>
<rect x="34.8" y="19" fill="#ec407a" width="10.5" height="9.9"/>
<path fill="#ec407a" d="M54.2,82.1H26V55.2h28.3V82.1z M30.2,77.9H50V59.5H30.2V77.9z"/>
<rect x="34.8" y="63.7" fill="#ec407a" width="10.5" height="9.9"/>
<path fill="#ec407a" d="M99.2,37.5h-27V10.5h27V37.5z M76.3,33.2h18.8V14.8H76.3V33.2z"/>
<rect x="80.7" y="19" fill="#ec407a" width="10" height="9.9"/>
<rect x="26" y="41.9" fill="#ec407a" width="4.5" height="4.5"/>
<rect x="30.4" y="46.4" fill="#ec407a" width="4.5" height="4.5"/>
<rect x="34.9" y="41.9" fill="#ec407a" width="4.5" height="4.5"/>
<rect x="45.4" y="41.9" fill="#ec407a" width="4.5" height="4.5"/>
<rect x="49.9" y="46.4" fill="#ec407a" width="4.5" height="4.5"/>
<rect x="54.4" y="41.9" fill="#ec407a" width="4.5" height="4.5"/>
<rect x="58.8" y="46.4" fill="#ec407a" width="4.5" height="4.5"/>
<rect x="63.3" y="50.9" fill="#ec407a" width="4.5" height="4.5"/>
<rect x="58.8" y="55.3" fill="#ec407a" width="4.5" height="4.5"/>
<rect x="63.3" y="59.8" fill="#ec407a" width="4.5" height="4.5"/>
<rect x="58.8" y="64.3" fill="#ec407a" width="4.5" height="4.5"/>
<rect x="63.3" y="68.8" fill="#ec407a" width="4.5" height="4.5"/>
<rect x="58.8" y="73.2" fill="#ec407a" width="4.5" height="4.5"/>
<rect x="63.3" y="77.7" fill="#ec407a" width="4.5" height="4.5"/>
<rect x="67.8" y="46.4" fill="#ec407a" width="4.5" height="4.5"/>
<rect x="72.3" y="50.9" fill="#ec407a" width="4.5" height="4.5"/>
<rect x="67.8" y="55.3" fill="#ec407a" width="4.5" height="4.5"/>
<rect x="72.3" y="59.8" fill="#ec407a" width="4.5" height="4.5"/>
<rect x="67.8" y="64.3" fill="#ec407a" width="4.5" height="4.5"/>
<rect x="72.3" y="68.8" fill="#ec407a" width="4.5" height="4.5"/>
<rect x="72.3" y="77.7" fill="#ec407a" width="4.5" height="4.5"/>
<rect x="76.7" y="46.4" fill="#ec407a" width="4.5" height="4.5"/>
<rect x="76.7" y="55.3" fill="#ec407a" width="4.5" height="4.5"/>
<rect x="76.7" y="73.2" fill="#ec407a" width="4.5" height="4.5"/>
<rect x="81.2" y="59.8" fill="#ec407a" width="4.5" height="4.5"/>
<rect x="81.2" y="68.8" fill="#ec407a" width="4.5" height="4.5"/>
<rect x="81.2" y="77.7" fill="#ec407a" width="4.5" height="4.5"/>
<rect x="85.7" y="46.4" fill="#ec407a" width="4.5" height="4.5"/>
<rect x="72.3" y="41.9" fill="#ec407a" width="4.5" height="4.5"/>
<rect x="81.2" y="41.9" fill="#ec407a" width="4.5" height="4.5"/>
<rect x="90.2" y="41.9" fill="#ec407a" width="4.5" height="4.5"/>
<rect x="85.7" y="55.3" fill="#ec407a" width="4.5" height="4.5"/>
<rect x="85.7" y="64.3" fill="#ec407a" width="4.5" height="4.5"/>
<rect x="85.7" y="73.2" fill="#ec407a" width="4.5" height="4.5"/>
<rect x="90.2" y="50.9" fill="#ec407a" width="4.5" height="4.5"/>
<rect x="90.2" y="59.8" fill="#ec407a" width="4.5" height="4.5"/>
<rect x="90.2" y="77.7" fill="#ec407a" width="4.5" height="4.5"/>
<rect x="94.6" y="46.4" fill="#ec407a" width="4.5" height="4.5"/>
<rect x="94.6" y="55.3" fill="#ec407a" width="4.5" height="4.5"/>
<rect x="94.6" y="64.3" fill="#ec407a" width="4.5" height="4.5"/>
<rect x="94.6" y="73.2" fill="#ec407a" width="4.5" height="4.5"/>
<rect x="58.8" y="37.4" fill="#ec407a" width="4.5" height="4.5"/>
<rect x="63.3" y="33" fill="#ec407a" width="4.5" height="4.5"/>
<rect x="58.8" y="28.5" fill="#ec407a" width="4.5" height="4.5"/>
<rect x="63.3" y="24" fill="#ec407a" width="4.5" height="4.5"/>
<rect x="58.8" y="19.5" fill="#ec407a" width="4.5" height="4.5"/>
<rect x="63.3" y="15.1" fill="#ec407a" width="4.5" height="4.5"/>
<rect x="58.8" y="10.6" fill="#ec407a" width="4.5" height="4.5"/>
</svg>
