<?xml version="1.0" encoding="utf-8"?>
<!-- Generator: Adobe Illustrator 18.0.0, SVG Export Plug-In . SVG Version: 6.00 Build 0)  -->
<!DOCTYPE svg PUBLIC "-//W3C//DTD SVG 1.1//EN" "http://www.w3.org/Graphics/SVG/1.1/DTD/svg11.dtd">
<svg version="1.1" id="Calque_1" xmlns="http://www.w3.org/2000/svg" xmlns:xlink="http://www.w3.org/1999/xlink" x="0px" y="0px"
	 viewBox="0 0 227 120" enable-background="new 0 0 227 120" xml:space="preserve">
<rect x="19.3" y="6.6" fill="none" width="199.1" height="62.8"/>
<path fill="#778796" d="M30.2,41.3l1.1-3.1c1.8,1.2,3.3,1.8,4.4,1.8c2,0,3-0.8,3-2.5c0-1.2-1-2.2-2.9-3.1c-1.5-0.7-2.5-1.2-3-1.5
	c-0.5-0.4-1-0.8-1.3-1.2c-0.4-0.4-0.7-0.9-0.8-1.4c-0.2-0.5-0.3-1-0.3-1.6c0-1.5,0.5-2.7,1.6-3.5c1.1-0.8,2.5-1.3,4.3-1.3
	c1.3,0,3,0.4,5,1.3l-0.9,3c-1.3-1-2.6-1.5-3.9-1.5c-0.8,0-1.4,0.2-1.9,0.5c-0.5,0.4-0.8,0.8-0.8,1.4c0,1.2,0.7,2.1,2,2.7l2.3,1.1
	c1.4,0.6,2.4,1.4,3.1,2.2c0.6,0.8,1,1.9,1,3.1c0,1.6-0.6,2.9-1.7,3.8c-1.1,0.9-2.7,1.4-4.8,1.4C33.7,42.7,31.9,42.2,30.2,41.3z"/>
<path fill="#778796" d="M55.8,40.3c-1.3,1.6-3.3,2.4-5.9,2.4c-1.4,0-2.7-0.5-3.7-1.6c-1-1-1.6-2.3-1.6-3.9c0-1.8,0.8-3.4,2.4-4.7
	c1.6-1.3,3.7-1.9,6.2-1.9c0.7,0,1.5,0.1,2.3,0.4c0-2.9-1.3-4.4-3.9-4.4c-2,0-3.6,0.5-4.7,1.6l-1.4-2.7c0.6-0.5,1.5-0.9,2.5-1.3
	c1.1-0.4,2.1-0.5,3.1-0.5c2.6,0,4.6,0.6,5.8,1.8c1.2,1.2,1.8,3.1,1.8,5.7v6.5c0,1.6,0.5,2.7,1.4,3.2v1.6c-1.3,0-2.3-0.2-2.9-0.6
	C56.5,41.7,56.1,41.1,55.8,40.3z M55.5,33.4c-1-0.2-1.7-0.3-2.1-0.3c-1.6,0-3,0.4-4,1.3c-1,0.8-1.5,1.8-1.5,3c0,1.9,1.1,2.8,3.3,2.8
	c1.6,0,3.1-0.8,4.3-2.3V33.4z"/>
<path fill="#778796" d="M89.4,33.6H76.3c0,2.1,0.6,3.8,1.7,4.9c1,1,2.4,1.5,4,1.5c1.8,0,3.4-0.5,4.6-1.6l1.4,2.3
	c-0.5,0.5-1.3,0.9-2.3,1.3c-1.3,0.5-2.7,0.7-4.3,0.7c-2.3,0-4.2-0.8-5.8-2.3c-1.8-1.7-2.7-4-2.7-6.9c0-3,0.9-5.4,2.7-7.2
	c1.6-1.6,3.6-2.4,5.8-2.4c2.6,0,4.6,0.7,6.1,2.2c1.4,1.4,2.1,3.3,2.1,5.6C89.6,32.3,89.6,33,89.4,33.6z M81.6,26.5
	c-1.4,0-2.6,0.5-3.6,1.4c-0.9,0.9-1.5,2-1.6,3.3h10.1c0-1.3-0.4-2.4-1.2-3.3C84.3,27,83.1,26.5,81.6,26.5z"/>
<path fill="#778796" d="M108.3,26.7h-2.1v-2.5h2.1v-3.8l3.2-1.2v5h5v2.5h-5v9c0,1.5,0.3,2.6,0.8,3.3s1.3,1,2.5,1
	c0.8,0,1.7-0.2,2.6-0.6l0.5,2.8c-1.3,0.3-2.8,0.5-4.4,0.5c-1.4,0-2.7-0.5-3.6-1.6c-1-1.1-1.5-2.4-1.5-4.1V26.7z"/>
<path fill="#778796" d="M130.8,27.3c-0.7-0.5-1.4-0.7-2.1-0.7c-1.1,0-2.1,0.5-3,1.6c-0.9,1.1-1.3,2.3-1.3,3.8v10.4h-3.2V24.2h3.2
	v2.9c1.2-2.2,2.9-3.2,5.3-3.2c0.6,0,1.4,0.1,2.5,0.3L130.8,27.3z"/>
<path fill="#778796" d="M144.7,40.3c-1.3,1.6-3.3,2.4-5.9,2.4c-1.4,0-2.7-0.5-3.7-1.6c-1-1-1.6-2.3-1.6-3.9c0-1.8,0.8-3.4,2.4-4.7
	c1.6-1.3,3.7-1.9,6.2-1.9c0.7,0,1.5,0.1,2.3,0.4c0-2.9-1.3-4.4-3.9-4.4c-2,0-3.6,0.5-4.7,1.6l-1.4-2.7c0.6-0.5,1.5-0.9,2.5-1.3
	c1.1-0.4,2.1-0.5,3.1-0.5c2.6,0,4.6,0.6,5.8,1.8c1.2,1.2,1.8,3.1,1.8,5.7v6.5c0,1.6,0.5,2.7,1.4,3.2v1.6c-1.3,0-2.3-0.2-2.9-0.6
	C145.5,41.7,145,41.1,144.7,40.3z M144.4,33.4c-1-0.2-1.7-0.3-2.1-0.3c-1.6,0-3,0.4-4,1.3c-1,0.8-1.5,1.8-1.5,3
	c0,1.9,1.1,2.8,3.3,2.8c1.6,0,3.1-0.8,4.3-2.3V33.4z"/>
<path fill="#778796" d="M153.9,26.7h-2.1v-2.5h2.1v-3.8l3.2-1.2v5h5v2.5h-5v9c0,1.5,0.3,2.6,0.8,3.3s1.3,1,2.5,1
	c0.8,0,1.7-0.2,2.6-0.6l0.5,2.8c-1.3,0.3-2.8,0.5-4.4,0.5c-1.4,0-2.7-0.5-3.6-1.6c-1-1.1-1.5-2.4-1.5-4.1V26.7z"/>
<path fill="#778796" d="M169.6,24.2v11.6c0,2.8,1.2,4.2,3.7,4.2c1.1,0,2-0.3,2.9-0.9c0.9-0.6,1.5-1.3,1.7-2.1V24.2h3.2v18.2h-3.2
	v-2.5c-0.4,0.7-1.1,1.4-2.2,2c-1.1,0.6-2.2,0.9-3.2,0.9c-2,0-3.5-0.6-4.6-1.7c-1.1-1.1-1.6-2.8-1.6-4.9V24.2H169.6z"/>
<path fill="#778796" d="M184.4,41.3l1.1-3.1c1.8,1.2,3.3,1.8,4.4,1.8c2,0,3-0.8,3-2.5c0-1.2-1-2.2-2.9-3.1c-1.5-0.7-2.5-1.2-3-1.5
	c-0.5-0.4-1-0.8-1.3-1.2c-0.4-0.4-0.7-0.9-0.8-1.4c-0.2-0.5-0.3-1-0.3-1.6c0-1.5,0.5-2.7,1.6-3.5c1.1-0.8,2.5-1.3,4.3-1.3
	c1.3,0,3,0.4,5,1.3l-0.9,3c-1.3-1-2.6-1.5-3.9-1.5c-0.8,0-1.4,0.2-1.9,0.5c-0.5,0.4-0.8,0.8-0.8,1.4c0,1.2,0.7,2.1,2,2.7l2.3,1.1
	c1.4,0.6,2.4,1.4,3.1,2.2c0.6,0.8,1,1.9,1,3.1c0,1.6-0.6,2.9-1.7,3.8c-1.1,0.9-2.7,1.4-4.8,1.4C187.9,42.7,186.1,42.2,184.4,41.3z"
	/>
<g>
	<path fill="#0069D2" d="M95.4,28.5c0-0.6,0.3-1,0.8-1.4c0.1-0.1,0.2-0.1,0.3-0.2v-3c-1.1,0.2-2.1,0.5-2.8,1.1
		c-1.1,0.8-1.6,2-1.6,3.5c0,0.6,0.1,1.1,0.3,1.6c0.2,0.5,0.5,1,0.8,1.4c0.4,0.4,0.8,0.8,1.3,1.2c0.4,0.3,1.1,0.6,2,1.1v-3.3
		C95.7,30,95.4,29.3,95.4,28.5z"/>
	<path fill="#0069D2" d="M93,38.2l-1.1,3.1c1.4,0.8,3,1.3,4.6,1.4v-2.8C95.5,39.6,94.3,39.1,93,38.2z"/>
	<path fill="#0069D2" d="M102.8,34.4c-0.6-0.8-1.7-1.6-3.1-2.2l-0.9-0.4v3.3c1.1,0.7,1.6,1.5,1.6,2.4c0,1.2-0.5,2-1.6,2.3v2.8
		c1.3-0.2,2.4-0.6,3.3-1.3c1.1-0.9,1.7-2.2,1.7-3.8C103.7,36.2,103.4,35.2,102.8,34.4z"/>
	<path fill="#0069D2" d="M102,28.1l0.9-3c-1.6-0.7-3-1.1-4.1-1.2v2.7C99.8,26.7,100.9,27.2,102,28.1z"/>
</g>
<path fill="#778796" d="M67.3,36.7V19.1h-3.2v18.1c0,3.7,2.1,5.5,6.3,5.5v-2.9c-0.9,0-1.6-0.3-2.2-0.8
	C67.6,38.4,67.3,37.6,67.3,36.7z"/>
<g>
	<path fill="#778796" d="M197.1,25.3c0-0.5,0.2-0.9,0.5-1.2s0.7-0.5,1.2-0.5s0.9,0.2,1.2,0.5s0.5,0.7,0.5,1.2c0,0.5-0.2,0.9-0.5,1.2
		c-0.3,0.3-0.7,0.5-1.2,0.5s-0.9-0.2-1.2-0.5C197.3,26.1,197.1,25.7,197.1,25.3z M200.2,25.3c0-0.4-0.1-0.7-0.4-1s-0.6-0.4-1-0.4
		s-0.7,0.1-1,0.4s-0.4,0.6-0.4,1c0,0.4,0.1,0.7,0.4,1c0.3,0.3,0.6,0.4,1,0.4s0.7-0.1,1-0.4C200.1,26,200.2,25.7,200.2,25.3z
		 M199.3,26.3l-0.5-0.9h-0.3v0.9h-0.3v-2.1h0.5c0.5,0,0.8,0.2,0.8,0.6c0,0.3-0.1,0.5-0.4,0.6l0.6,0.9H199.3z M198.5,24.4v0.7
		c0,0,0.1,0,0.2,0c0.2,0,0.3,0,0.4-0.1s0.1-0.1,0.1-0.3c0-0.2-0.2-0.3-0.5-0.3h-0.1L198.5,24.4z"/>
</g>
<g>
	<path fill="#0069D2" d="M27.1,90.5l3.4-6.3c3.3,2.4,6.1,3.7,8.4,3.7c4.1,0,6.5-1.7,7.1-5.2c0.4-2.5-1.2-4.6-4.9-6.4
		c-2.8-1.4-4.7-2.5-5.7-3.2c-0.9-0.7-1.7-1.6-2.4-2.5c-0.6-0.9-1.1-1.9-1.3-3c-0.2-1-0.2-2.2,0-3.4c0.5-3.1,2-5.5,4.6-7.3
		c2.5-1.7,5.6-2.6,9.3-2.6c2.7,0,6.1,0.9,10,2.6l-2.9,6.2c-2.3-2.1-4.8-3.2-7.5-3.2c-1.6,0-3,0.4-4.2,1.1c-1.2,0.8-1.9,1.7-2.1,2.9
		c-0.4,2.4,0.7,4.2,3.2,5.5l4.4,2.2c2.7,1.3,4.6,2.9,5.6,4.6c1.1,1.7,1.4,3.9,0.9,6.4c-0.6,3.4-2.2,6-4.9,7.9
		c-2.7,1.9-6.1,2.9-10.3,2.9C33.8,93.5,30.3,92.5,27.1,90.5z"/>
	<path fill="#0069D2" d="M64.7,90.7l-2.8,16.9h-6.7l8.7-52.5h6.7l-0.5,3.1c3-2.5,6.2-3.8,9.8-3.8c5.4,0,9.2,1.7,11.7,5
		c2.4,3.3,3.1,8.2,2,14.6c-1,5.7-3.2,10.4-6.8,14c-3.6,3.6-8.3,5.4-13.9,5.4c-1.6,0-3.3-0.3-5-0.8C66.1,92.1,65.1,91.4,64.7,90.7z
		 M69.2,63.2l-3.7,22c0.3,0.6,1.1,1.2,2.4,1.8c1.3,0.6,2.5,0.9,3.8,0.9c8.3,0,13.2-4.7,14.8-14.1c0.8-4.8,0.4-8.2-1.2-10.5
		c-1.6-2.2-4.6-3.3-8.9-3.3c-0.9,0-2.1,0.3-3.6,1C71.4,61.6,70.2,62.4,69.2,63.2z"/>
	<path fill="#0069D2" d="M119.1,88.4c-3.2,3.4-7.6,5-13.1,5c-3,0-5.3-1.1-7.2-3.2c-1.8-2.1-2.5-4.8-1.9-8c0.6-3.8,2.8-7.1,6.6-9.7
		c3.8-2.6,8.3-4,13.5-4c1.4,0,3,0.3,4.6,0.9c1-6.1-1.2-9.2-6.6-9.2c-4.2,0-7.6,1.1-10.2,3.4l-1.9-5.6c1.4-1,3.3-1.9,5.7-2.7
		c2.4-0.7,4.6-1.1,6.6-1.1c5.5,0,9.2,1.2,11.3,3.7c2.1,2.5,2.6,6.4,1.7,11.9L126,83.5c-0.6,3.3,0.1,5.5,1.9,6.6l-0.6,3.3
		c-2.7,0-4.7-0.4-5.9-1.2C120.1,91.5,119.4,90.2,119.1,88.4z M120.8,74.3c-2-0.5-3.5-0.7-4.3-0.7c-3.4,0-6.3,0.9-8.7,2.6
		c-2.4,1.7-3.8,3.8-4.2,6.2c-0.7,3.9,1.3,5.9,6,5.9c3.4,0,6.6-1.6,9.8-4.8L120.8,74.3z"/>
	<path fill="#0069D2" d="M159.9,61.5c-1.3-1-2.7-1.5-4.1-1.5c-2.4,0-4.6,1.1-6.8,3.3c-2.1,2.2-3.5,4.8-4,7.9l-3.6,21.6h-6.7
		l6.3-37.7h6.7l-1,6c3.2-4.5,7.2-6.7,12-6.7c1.2,0,2.9,0.2,5.1,0.6L159.9,61.5z"/>
	<path fill="#0069D2" d="M185.9,92.8l-8.7-18.9l-6.8,6l-2.1,12.8h-6.7l8-46.4h6.7l-4.6,26.2l17.4-17.5h7.8l-14.5,14.3l10.9,23.4
		H185.9z"/>
</g>
</svg>
