<?xml version="1.0" encoding="utf-8"?>
<!-- Generator: Adobe Illustrator 18.0.0, SVG Export Plug-In . SVG Version: 6.00 Build 0)  -->
<!DOCTYPE svg PUBLIC "-//W3C//DTD SVG 1.1//EN" "http://www.w3.org/Graphics/SVG/1.1/DTD/svg11.dtd">
<svg version="1.1" id="Calque_1" xmlns="http://www.w3.org/2000/svg" xmlns:xlink="http://www.w3.org/1999/xlink" x="0px" y="0px"
	 viewBox="0 0 126.3 94" enable-background="new 0 0 126.3 94" xml:space="preserve">
<rect x="0" y="0" fill="none" width="126.3" height="94"/>
<circle fill="#FFFFFF" cx="35.5" cy="33.1" r="6.3"/>
<path fill="#FFFFFF" d="M35.5,53c4,0,7.8-0.7,11.3-2.1c-0.8-5.6-5.5-9.9-11.3-9.9S25,45.3,24.2,50.9C27.7,52.2,31.5,53,35.5,53z"/>
<g>
	<path fill="#FFFFFF" d="M74.2,46.9h2.4l3.9,10.5h-2.4L77.3,55h-3.9l-0.8,2.3h-2.3L74.2,46.9z M74,53.3h2.7l-1.3-3.8h0L74,53.3z"/>
	<path fill="#FFFFFF" d="M81.4,46.9h4.9c2,0,3.3,0.6,3.3,2.6c0,1-0.5,1.7-1.4,2.2c1.3,0.4,1.9,1.4,1.9,2.7c0,2.1-1.8,3-3.7,3h-5.1
		V46.9z M83.7,51.1H86c0.8,0,1.4-0.4,1.4-1.2c0-1-0.8-1.2-1.6-1.2h-2.2V51.1z M83.7,55.5h2.5c0.9,0,1.7-0.3,1.7-1.4
		c0-1.1-0.7-1.5-1.7-1.5h-2.5V55.5z"/>
	<path fill="#FFFFFF" d="M98.7,50.4c-0.2-1-1.2-1.8-2.3-1.8c-2.1,0-2.8,1.8-2.8,3.6c0,1.7,0.8,3.5,2.8,3.5c1.4,0,2.2-1,2.4-2.3h2.2
		c-0.2,2.6-2,4.3-4.6,4.3c-3.2,0-5.2-2.4-5.2-5.4c0-3.1,1.9-5.5,5.2-5.5c2.3,0,4.2,1.4,4.5,3.8H98.7z"/>
</g>
<path fill="#FFFFFF" d="M122.2,81.2l-13.9-13.9c3-4.3,4.7-9.5,4.7-15c0-11.6-7.5-21.4-17.8-25V14.6H15.4v51.3h48.3
	c4.6,7.8,13.1,13,22.8,13c5.5,0,10.5-1.7,14.8-4.5l13.9,13.9L122.2,81.2z M19.6,61.6V18.8h71.2v7.3c-1.4-0.2-2.9-0.4-4.4-0.4
	c-5.3,0-10.2,1.6-14.4,4.3H50.6v4.3H67c-1.1,1.2-2.1,2.5-2.9,3.8H50.6v4.3h11.3c-0.5,1.2-0.9,2.5-1.2,3.8H50.6v4.3H60
	c0,0.6-0.1,1.2-0.1,1.9c0,3.3,0.6,6.4,1.7,9.3H19.6z M65.4,52.2c0-11.6,9.5-21.1,21.1-21.1c11.6,0,21.1,9.5,21.1,21.1
	s-9.5,21.1-21.1,21.1C74.8,73.3,65.4,63.9,65.4,52.2z"/>
</svg>
