<?xml version="1.0" encoding="utf-8"?>
<!-- Generator: Adobe Illustrator 18.0.0, SVG Export Plug-In . SVG Version: 6.00 Build 0)  -->
<!DOCTYPE svg PUBLIC "-//W3C//DTD SVG 1.1//EN" "http://www.w3.org/Graphics/SVG/1.1/DTD/svg11.dtd">
<svg version="1.1" id="Calque_1" xmlns="http://www.w3.org/2000/svg" xmlns:xlink="http://www.w3.org/1999/xlink" x="0px" y="0px"
	 viewBox="0 0 126.3 94" enable-background="new 0 0 126.3 94" xml:space="preserve">
<rect x="0" y="0" fill="none" width="126.3" height="94"/>
<path fill="#FFFFFF" d="M100.4,16.1H25.1c-3.1,0-5.7,2.6-5.7,5.7v47.5c0,3.1,2.6,5.7,5.7,5.7h75.3c3.1,0,5.7-2.6,5.7-5.7V21.8
	C106.1,18.7,103.5,16.1,100.4,16.1z M65.7,25.8h11v11h-11V25.8z M81.9,40.3v11H71.6v-11H81.9z M67.7,40.3v11H57.4v-11H67.7z
	 M51.9,25.8h11v11h-11V25.8z M53.6,40.3v11H43.2v-11H53.6z M38.1,25.8h11v11h-11V25.8z M29.1,25.8h5.8v11h-5.8V25.8z M29.1,40.3
	h10.3v11H29.1V40.3z M34.9,65.8h-5.8v-11h5.8V65.8z M78.1,65.8h-40v-11h40V65.8z M96.2,65.8H81.7v-11h14.5V65.8z M96.2,51.3H85.9
	v-11h10.3V51.3z M96.2,36.8H79.6v-11h16.7V36.8z"/>
</svg>
