<?xml version="1.0" encoding="utf-8"?>
<!-- Generator: Adobe Illustrator 19.1.0, SVG Export Plug-In . SVG Version: 6.00 Build 0)  -->
<svg version="1.1" id="Calque_1" xmlns="http://www.w3.org/2000/svg" xmlns:xlink="http://www.w3.org/1999/xlink" x="0px" y="0px"
	 viewBox="0 0 253.2 68.4" enable-background="new 0 0 253.2 68.4" xml:space="preserve">
<path fill="#788696" d="M4,36.9l1.6-4.4c2.6,1.7,4.6,2.5,6.2,2.5c2.8,0,4.3-1.2,4.3-3.6c0-1.7-1.4-3.2-4.1-4.4
	c-2.1-1-3.5-1.7-4.3-2.2c-0.7-0.5-1.4-1.1-1.9-1.7c-0.5-0.6-0.9-1.3-1.2-2s-0.4-1.5-0.4-2.3c0-2.1,0.8-3.8,2.3-5
	c1.5-1.2,3.6-1.8,6.1-1.8c1.9,0,4.3,0.6,7.1,1.8l-1.3,4.3c-1.8-1.5-3.6-2.2-5.5-2.2c-1.1,0-2,0.3-2.8,0.8c-0.8,0.5-1.1,1.2-1.1,2
	c0,1.7,0.9,2.9,2.8,3.8l3.3,1.5c2,0.9,3.5,2,4.4,3.1c0.9,1.2,1.4,2.7,1.4,4.4c0,2.3-0.8,4.1-2.4,5.4c-1.6,1.3-3.9,2-6.8,2
	C8.9,39,6.4,38.3,4,36.9z"/>
<path fill="#788696" d="M40.3,35.5c-1.8,2.3-4.6,3.5-8.4,3.5c-2,0-3.8-0.7-5.3-2.2c-1.5-1.5-2.2-3.3-2.2-5.5c0-2.6,1.1-4.8,3.4-6.7
	s5.2-2.7,8.8-2.7c1,0,2.1,0.2,3.3,0.6c0-4.2-1.9-6.3-5.6-6.3c-2.9,0-5.1,0.8-6.6,2.3l-1.9-3.8c0.9-0.7,2.1-1.3,3.6-1.8
	c1.5-0.5,3-0.8,4.4-0.8c3.8,0,6.5,0.9,8.2,2.6c1.7,1.7,2.5,4.4,2.5,8.1v9.3c0,2.3,0.7,3.8,2,4.5v2.3c-1.9,0-3.3-0.3-4.2-0.8
	C41.4,37.6,40.7,36.7,40.3,35.5z M39.9,25.8c-1.4-0.3-2.5-0.5-3-0.5c-2.3,0-4.2,0.6-5.7,1.8c-1.5,1.2-2.2,2.6-2.2,4.2
	c0,2.7,1.6,4,4.8,4c2.3,0,4.4-1.1,6.2-3.3V25.8z"/>
<path fill="#788696" d="M52.1,31.2V2h4.6v28.4c0,1.4,0.4,2.5,1.2,3.3c0.8,0.8,1.8,1.2,3.1,1.2V39C55,39,52.1,36.4,52.1,31.2z"/>
<path fill="#788696" d="M88.1,26H69.5c0,3,0.8,5.4,2.5,7c1.5,1.4,3.4,2.1,5.7,2.1c2.6,0,4.8-0.8,6.6-2.3l1.9,3.3
	c-0.7,0.7-1.8,1.3-3.3,1.8c-1.8,0.7-3.9,1-6.1,1c-3.3,0-6-1.1-8.3-3.3c-2.5-2.4-3.8-5.7-3.8-9.8c0-4.3,1.3-7.7,3.9-10.3
	c2.3-2.3,5.1-3.5,8.2-3.5c3.7,0,6.6,1,8.7,3.1c2,2,3,4.6,3,8C88.5,24.2,88.3,25.1,88.1,26z M77,16c-2,0-3.8,0.7-5.1,2
	c-1.3,1.3-2.1,2.8-2.2,4.7h14.3c0-1.9-0.6-3.4-1.7-4.6C80.9,16.7,79.2,16,77,16z"/>
<path fill="#788696" d="M115,16.2h-3v-3.6h3V7.2l4.6-1.8v7.2h7.1v3.6h-7.1v12.9c0,2.2,0.4,3.7,1.1,4.6s1.9,1.4,3.5,1.4
	c1.2,0,2.4-0.3,3.6-0.9l0.7,4c-1.9,0.5-4,0.7-6.3,0.7c-2,0-3.8-0.8-5.2-2.3c-1.4-1.5-2.1-3.4-2.1-5.8V16.2z"/>
<path fill="#788696" d="M147,17c-1-0.7-2-1-3-1c-1.6,0-3,0.7-4.3,2.2c-1.2,1.5-1.8,3.3-1.8,5.4v14.8h-4.6V12.6h4.6v4.1
	c1.7-3.1,4.2-4.6,7.5-4.6c0.8,0,2,0.1,3.6,0.4L147,17z"/>
<path fill="#788696" d="M166.8,35.5c-1.8,2.3-4.6,3.5-8.4,3.5c-2,0-3.8-0.7-5.3-2.2c-1.5-1.5-2.2-3.3-2.2-5.5c0-2.6,1.1-4.8,3.4-6.7
	s5.2-2.7,8.8-2.7c1,0,2.1,0.2,3.3,0.6c0-4.2-1.9-6.3-5.6-6.3c-2.9,0-5.1,0.8-6.6,2.3l-1.9-3.8c0.9-0.7,2.1-1.3,3.6-1.8
	c1.5-0.5,3-0.8,4.4-0.8c3.8,0,6.5,0.9,8.2,2.6c1.7,1.7,2.5,4.4,2.5,8.1v9.3c0,2.3,0.7,3.8,2,4.5v2.3c-1.9,0-3.3-0.3-4.2-0.8
	C167.9,37.6,167.2,36.7,166.8,35.5z M166.4,25.8c-1.4-0.3-2.5-0.5-3-0.5c-2.3,0-4.2,0.6-5.7,1.8c-1.5,1.2-2.2,2.6-2.2,4.2
	c0,2.7,1.6,4,4.8,4c2.3,0,4.4-1.1,6.2-3.3V25.8z"/>
<path fill="#788696" d="M179.8,16.2h-3v-3.6h3V7.2l4.6-1.8v7.2h7.1v3.6h-7.1v12.9c0,2.2,0.4,3.7,1.1,4.6c0.7,0.9,1.9,1.4,3.5,1.4
	c1.2,0,2.4-0.3,3.6-0.9l0.7,4c-1.9,0.5-4,0.7-6.3,0.7c-2,0-3.8-0.8-5.2-2.3c-1.4-1.5-2.1-3.4-2.1-5.8V16.2z"/>
<path fill="#788696" d="M202.2,12.6v16.5c0,4,1.7,6,5.2,6c1.5,0,2.9-0.4,4.2-1.3c1.3-0.9,2.1-1.9,2.5-3V12.6h4.6v25.9H214v-3.6
	c-0.5,1-1.6,1.9-3.1,2.8c-1.6,0.8-3.1,1.3-4.6,1.3c-2.8,0-5-0.8-6.5-2.4c-1.5-1.6-2.3-3.9-2.3-6.9v-17H202.2z"/>
<path fill="#788696" d="M223.2,36.9l1.6-4.4c2.6,1.7,4.6,2.5,6.2,2.5c2.8,0,4.3-1.2,4.3-3.6c0-1.7-1.4-3.2-4.1-4.4
	c-2.1-1-3.5-1.7-4.3-2.2c-0.7-0.5-1.4-1.1-1.9-1.7c-0.5-0.6-0.9-1.3-1.2-2s-0.4-1.5-0.4-2.3c0-2.1,0.8-3.8,2.3-5
	c1.5-1.2,3.6-1.8,6.1-1.8c1.9,0,4.3,0.6,7.1,1.8l-1.3,4.3c-1.8-1.5-3.6-2.2-5.5-2.2c-1.1,0-2,0.3-2.8,0.8c-0.8,0.5-1.1,1.2-1.1,2
	c0,1.7,0.9,2.9,2.8,3.8l3.3,1.5c2,0.9,3.5,2,4.4,3.1c0.9,1.2,1.4,2.7,1.4,4.4c0,2.3-0.8,4.1-2.4,5.4c-1.6,1.3-3.9,2-6.8,2
	C228.1,39,225.6,38.3,223.2,36.9z"/>
<path fill="#0069D2" d="M96.6,18.7c0-0.8,0.4-1.4,1.1-2c0.1-0.1,0.3-0.2,0.4-0.2v-4.2c-1.6,0.2-2.9,0.8-4,1.6
	c-1.5,1.2-2.3,2.9-2.3,5c0,0.8,0.1,1.6,0.4,2.3s0.7,1.4,1.2,2c0.5,0.6,1.2,1.2,1.9,1.7c0.6,0.4,1.5,0.9,2.8,1.5v-4.7
	C97.1,20.9,96.6,19.9,96.6,18.7z"/>
<path fill="#0069D2" d="M93.2,32.6l-1.6,4.4c2.1,1.2,4.2,1.8,6.5,2v-4C96.8,34.6,95.1,33.8,93.2,32.6z"/>
<path fill="#0069D2" d="M107.1,27.1c-0.9-1.2-2.4-2.2-4.4-3.1l-1.3-0.6v4.7c1.5,1,2.2,2.1,2.2,3.4c0,1.7-0.8,2.8-2.2,3.3v4
	c1.9-0.3,3.4-0.9,4.6-1.8c1.6-1.3,2.4-3.1,2.4-5.4C108.5,29.8,108,28.3,107.1,27.1z"/>
<path fill="#0069D2" d="M106,18.2l1.3-4.3c-2.3-0.9-4.2-1.5-5.9-1.7v3.8C103,16.3,104.5,17,106,18.2z"/>
<g>
	<path fill="#0069D2" d="M4.8,56c0-1,0-1.7-0.1-2.5h1.5L6.3,55h0.1c0.5-0.9,1.4-1.7,2.9-1.7c1.3,0,2.2,0.8,2.6,1.9h0
		c0.3-0.5,0.6-0.9,1-1.2c0.6-0.4,1.2-0.6,2-0.6c1.2,0,3,0.8,3,4v5.4h-1.6v-5.2c0-1.8-0.6-2.8-2-2.8c-1,0-1.7,0.7-2,1.5
		c-0.1,0.2-0.1,0.5-0.1,0.8v5.7h-1.6v-5.5c0-1.5-0.6-2.5-1.9-2.5c-1,0-1.8,0.8-2.1,1.7c-0.1,0.2-0.1,0.5-0.1,0.8v5.6H4.8V56z"/>
	<path fill="#0069D2" d="M29.1,58c0,3.4-2.4,4.9-4.6,4.9c-2.5,0-4.4-1.8-4.4-4.7c0-3.1,2-4.9,4.6-4.9C27.3,53.3,29.1,55.2,29.1,58z
		 M21.7,58.1c0,2,1.2,3.5,2.8,3.5c1.6,0,2.8-1.5,2.8-3.6c0-1.6-0.8-3.5-2.8-3.5C22.6,54.5,21.7,56.4,21.7,58.1z"/>
	<path fill="#0069D2" d="M31.1,62.7c0-0.6,0.1-1.6,0.1-2.4V49.2h1.7V55h0c0.6-1,1.7-1.7,3.1-1.7c2.3,0,3.9,1.9,3.9,4.7
		c0,3.3-2.1,4.9-4.1,4.9c-1.3,0-2.4-0.5-3.1-1.7h-0.1l-0.1,1.5H31.1z M32.8,59c0,0.2,0,0.4,0.1,0.6c0.3,1.2,1.3,2,2.5,2
		c1.8,0,2.8-1.4,2.8-3.5c0-1.9-1-3.4-2.7-3.4c-1.1,0-2.2,0.8-2.6,2.1c0,0.2-0.1,0.4-0.1,0.7V59z"/>
	<path fill="#0069D2" d="M43.9,50.9c0,0.6-0.4,1-1.1,1c-0.6,0-1-0.5-1-1c0-0.6,0.4-1,1-1C43.5,49.8,43.9,50.3,43.9,50.9z M42,62.7
		v-9.2h1.7v9.2H42z"/>
	<path fill="#0069D2" d="M46.5,49.2h1.7v13.5h-1.7V49.2z"/>
	<path fill="#0069D2" d="M51.9,58.4c0,2.3,1.5,3.2,3.2,3.2c1.2,0,1.9-0.2,2.6-0.5l0.3,1.2c-0.6,0.3-1.6,0.6-3.1,0.6
		c-2.8,0-4.5-1.9-4.5-4.7s1.6-5,4.3-5c3,0,3.8,2.7,3.8,4.3c0,0.3,0,0.6-0.1,0.8H51.9z M56.9,57.2c0-1.1-0.4-2.7-2.3-2.7
		c-1.7,0-2.4,1.6-2.6,2.7H56.9z"/>
	<path fill="#0069D2" d="M64.4,61c0.5,0.3,1.4,0.7,2.2,0.7c1.2,0,1.8-0.6,1.8-1.4c0-0.8-0.5-1.2-1.7-1.7C65,58,64.2,57.1,64.2,56
		c0-1.5,1.2-2.7,3.2-2.7c0.9,0,1.8,0.3,2.3,0.6l-0.4,1.2c-0.4-0.2-1-0.5-1.9-0.5c-1,0-1.5,0.6-1.5,1.3c0,0.8,0.6,1.1,1.8,1.6
		c1.6,0.6,2.4,1.4,2.4,2.8c0,1.6-1.3,2.8-3.5,2.8c-1,0-1.9-0.2-2.6-0.6L64.4,61z"/>
	<path fill="#0069D2" d="M77.3,62.7l-0.1-1.2h-0.1c-0.5,0.7-1.5,1.4-2.8,1.4c-1.9,0-2.8-1.3-2.8-2.7c0-2.2,2-3.5,5.5-3.4v-0.2
		c0-0.8-0.2-2.1-2.1-2.1c-0.9,0-1.8,0.3-2.4,0.7l-0.4-1.1c0.8-0.5,1.9-0.8,3-0.8c2.8,0,3.5,1.9,3.5,3.8v3.5c0,0.8,0,1.6,0.2,2.2
		H77.3z M77,58c-1.8,0-3.9,0.3-3.9,2.1c0,1.1,0.7,1.6,1.6,1.6c1.2,0,2-0.8,2.2-1.5C77,60,77,59.8,77,59.6V58z"/>
	<path fill="#0069D2" d="M81.4,49.2H83v13.5h-1.7V49.2z"/>
	<path fill="#0069D2" d="M86.8,58.4c0,2.3,1.5,3.2,3.2,3.2c1.2,0,1.9-0.2,2.6-0.5l0.3,1.2c-0.6,0.3-1.6,0.6-3.1,0.6
		c-2.8,0-4.5-1.9-4.5-4.7s1.6-5,4.3-5c3,0,3.8,2.7,3.8,4.3c0,0.3,0,0.6-0.1,0.8H86.8z M91.7,57.2c0-1.1-0.4-2.7-2.3-2.7
		c-1.7,0-2.4,1.6-2.6,2.7H91.7z"/>
	<path fill="#0069D2" d="M95.2,61c0.5,0.3,1.4,0.7,2.2,0.7c1.2,0,1.8-0.6,1.8-1.4c0-0.8-0.5-1.2-1.7-1.7C95.8,58,95,57.1,95,56
		c0-1.5,1.2-2.7,3.2-2.7c0.9,0,1.8,0.3,2.3,0.6l-0.4,1.2c-0.4-0.2-1-0.5-1.9-0.5c-1,0-1.5,0.6-1.5,1.3c0,0.8,0.6,1.1,1.8,1.6
		c1.6,0.6,2.4,1.4,2.4,2.8c0,1.6-1.3,2.8-3.5,2.8c-1,0-1.9-0.2-2.6-0.6L95.2,61z"/>
	<path fill="#0069D2" d="M107.9,58.4c0,2.3,1.5,3.2,3.2,3.2c1.2,0,1.9-0.2,2.6-0.5l0.3,1.2c-0.6,0.3-1.6,0.6-3.1,0.6
		c-2.8,0-4.5-1.9-4.5-4.7s1.6-5,4.3-5c3,0,3.8,2.7,3.8,4.3c0,0.3,0,0.6-0.1,0.8H107.9z M112.9,57.2c0-1.1-0.4-2.7-2.3-2.7
		c-1.7,0-2.4,1.6-2.6,2.7H112.9z"/>
	<path fill="#0069D2" d="M128.1,50.8c-0.4-0.3-1.1-0.5-1.9-0.5c-1.8,0-2.3,1.2-2.3,2.7v0.5h5.4v9.2h-1.7v-8H124v8h-1.7v-8h-3.9v8
		h-1.7v-8h-1.3v-1.3h1.3v-0.3c0-1.2,0.3-2.3,1.1-3.1c0.5-0.6,1.3-0.9,2.4-0.9c0.6,0,1.3,0.2,1.6,0.4l-0.5,1.2
		c-0.3-0.2-0.7-0.3-1.2-0.3c-0.5,0-0.9,0.2-1.2,0.5c-0.5,0.5-0.6,1.3-0.6,2.1v0.4h3.9V53c0-2.4,1.5-4,4-4c0.8,0,1.8,0.2,2.3,0.6
		L128.1,50.8z"/>
	<path fill="#0069D2" d="M138.7,62.4c-0.4,0.2-1.4,0.5-2.7,0.5c-2.8,0-4.6-1.9-4.6-4.7c0-2.8,1.9-4.9,5-4.9c1,0,1.9,0.2,2.3,0.5
		l-0.4,1.3c-0.4-0.2-1-0.4-1.9-0.4c-2.1,0-3.3,1.6-3.3,3.5c0,2.1,1.4,3.5,3.2,3.5c1,0,1.6-0.2,2.1-0.5L138.7,62.4z"/>
	<path fill="#0069D2" d="M142.5,50.9c0,0.6-0.4,1-1.1,1c-0.6,0-1-0.5-1-1c0-0.6,0.4-1,1-1C142.1,49.8,142.5,50.3,142.5,50.9z
		 M140.7,62.7v-9.2h1.7v9.2H140.7z"/>
	<path fill="#0069D2" d="M146.1,58.4c0,2.3,1.5,3.2,3.2,3.2c1.2,0,1.9-0.2,2.6-0.5l0.3,1.2c-0.6,0.3-1.6,0.6-3.1,0.6
		c-2.8,0-4.5-1.9-4.5-4.7s1.6-5,4.3-5c3,0,3.8,2.7,3.8,4.3c0,0.3,0,0.6-0.1,0.8H146.1z M151,57.2c0-1.1-0.4-2.7-2.3-2.7
		c-1.7,0-2.4,1.6-2.6,2.7H151z"/>
	<path fill="#0069D2" d="M154.7,56c0-1,0-1.7-0.1-2.5h1.5l0.1,1.5h0c0.5-0.9,1.5-1.7,3.1-1.7c1.3,0,3.3,0.8,3.3,3.9v5.5h-1.7v-5.3
		c0-1.5-0.6-2.7-2.1-2.7c-1.1,0-2,0.8-2.3,1.7c-0.1,0.2-0.1,0.5-0.1,0.8v5.6h-1.7V56z"/>
	<path fill="#0069D2" d="M171.8,62.4c-0.4,0.2-1.4,0.5-2.7,0.5c-2.8,0-4.6-1.9-4.6-4.7c0-2.8,1.9-4.9,5-4.9c1,0,1.9,0.2,2.3,0.5
		l-0.4,1.3c-0.4-0.2-1-0.4-1.9-0.4c-2.1,0-3.3,1.6-3.3,3.5c0,2.1,1.4,3.5,3.2,3.5c1,0,1.6-0.2,2.1-0.5L171.8,62.4z"/>
	<path fill="#0069D2" d="M174.8,53.5l2,5.5c0.2,0.6,0.4,1.3,0.6,1.9h0c0.2-0.6,0.4-1.3,0.6-1.9l1.8-5.4h1.8l-2.5,6.6
		c-1.2,3.2-2,4.8-3.2,5.8c-0.8,0.7-1.6,1-2.1,1.1l-0.4-1.4c0.4-0.1,1-0.4,1.5-0.8c0.5-0.4,1-1,1.4-1.9c0.1-0.2,0.1-0.3,0.1-0.4
		s0-0.2-0.1-0.4l-3.4-8.5H174.8z"/>
</g>
<text transform="matrix(0.583 0 0 0.583 240.1191 16.4068)" fill="#788696" font-family="'MyriadPro-Regular'" font-size="11.3291px">TM</text>
</svg>
